<mxfile host="app.diagrams.net" modified="2023-04-22T09:26:26.869Z" agent="Mozilla/5.0 (Windows NT 10.0; Win64; x64) AppleWebKit/537.36 (KHTML, like Gecko) Chrome/109.0.0.0 Safari/537.36" etag="g7CmZNy2nuHkgT2ZePA6" version="21.2.1" type="device">
  <diagram id="C5RBs43oDa-KdzZeNtuy" name="Page-1">
    <mxGraphModel dx="893" dy="479" grid="1" gridSize="10" guides="1" tooltips="1" connect="1" arrows="1" fold="1" page="1" pageScale="1" pageWidth="827" pageHeight="1169" math="0" shadow="0">
      <root>
        <mxCell id="WIyWlLk6GJQsqaUBKTNV-0" />
        <mxCell id="WIyWlLk6GJQsqaUBKTNV-1" parent="WIyWlLk6GJQsqaUBKTNV-0" />
        <mxCell id="wYNosFjGGxAnOiMQhdah-0" value="UserInterface" style="swimlane;fontStyle=1;align=center;verticalAlign=top;childLayout=stackLayout;horizontal=1;startSize=26;horizontalStack=0;resizeParent=1;resizeParentMax=0;resizeLast=0;collapsible=1;marginBottom=0;whiteSpace=wrap;html=1;" vertex="1" parent="WIyWlLk6GJQsqaUBKTNV-1">
          <mxGeometry x="40" y="40" width="180" height="320" as="geometry" />
        </mxCell>
        <mxCell id="wYNosFjGGxAnOiMQhdah-1" value="+ EXIT : Boolean&lt;br&gt;+ FORECAST_SPAN : int&lt;br&gt;+ TEMPERATURE_UNIT : str&lt;br&gt;+ NAME_OF_CITY : str&lt;br&gt;+ FORECAST_MODE : str" style="text;strokeColor=none;fillColor=none;align=left;verticalAlign=top;spacingLeft=4;spacingRight=4;overflow=hidden;rotatable=0;points=[[0,0.5],[1,0.5]];portConstraint=eastwest;whiteSpace=wrap;html=1;" vertex="1" parent="wYNosFjGGxAnOiMQhdah-0">
          <mxGeometry y="26" width="180" height="84" as="geometry" />
        </mxCell>
        <mxCell id="wYNosFjGGxAnOiMQhdah-2" value="" style="line;strokeWidth=1;fillColor=none;align=left;verticalAlign=middle;spacingTop=-1;spacingLeft=3;spacingRight=3;rotatable=0;labelPosition=right;points=[];portConstraint=eastwest;strokeColor=inherit;" vertex="1" parent="wYNosFjGGxAnOiMQhdah-0">
          <mxGeometry y="110" width="180" height="8" as="geometry" />
        </mxCell>
        <mxCell id="wYNosFjGGxAnOiMQhdah-3" value="+ main()&lt;br&gt;- __show_current_weather()&lt;br&gt;- __print_todays_forecast()&lt;br&gt;- __print_forecast()&lt;br&gt;- __get_user_input()&lt;br&gt;- __set_temperature_unit()&lt;br&gt;- __set_forecast_span()&lt;br&gt;- __set_name_of_city()&lt;br&gt;- __set_forecast_mode()&lt;br&gt;- __update_settings()&lt;br&gt;- __get_settings()&lt;br&gt;- __print_switchboard()&lt;br&gt;- __clear_screen()" style="text;strokeColor=none;fillColor=none;align=left;verticalAlign=top;spacingLeft=4;spacingRight=4;overflow=hidden;rotatable=0;points=[[0,0.5],[1,0.5]];portConstraint=eastwest;whiteSpace=wrap;html=1;" vertex="1" parent="wYNosFjGGxAnOiMQhdah-0">
          <mxGeometry y="118" width="180" height="202" as="geometry" />
        </mxCell>
        <mxCell id="wYNosFjGGxAnOiMQhdah-4" value="TextTable" style="swimlane;fontStyle=1;align=center;verticalAlign=top;childLayout=stackLayout;horizontal=1;startSize=26;horizontalStack=0;resizeParent=1;resizeParentMax=0;resizeLast=0;collapsible=1;marginBottom=0;whiteSpace=wrap;html=1;" vertex="1" parent="WIyWlLk6GJQsqaUBKTNV-1">
          <mxGeometry x="310" y="170" width="440" height="190" as="geometry" />
        </mxCell>
        <mxCell id="wYNosFjGGxAnOiMQhdah-5" value="+ rows : int&lt;br&gt;+ current_row : int&lt;br&gt;+ table : list" style="text;strokeColor=none;fillColor=none;align=left;verticalAlign=top;spacingLeft=4;spacingRight=4;overflow=hidden;rotatable=0;points=[[0,0.5],[1,0.5]];portConstraint=eastwest;whiteSpace=wrap;html=1;" vertex="1" parent="wYNosFjGGxAnOiMQhdah-4">
          <mxGeometry y="26" width="440" height="54" as="geometry" />
        </mxCell>
        <mxCell id="wYNosFjGGxAnOiMQhdah-6" value="" style="line;strokeWidth=1;fillColor=none;align=left;verticalAlign=middle;spacingTop=-1;spacingLeft=3;spacingRight=3;rotatable=0;labelPosition=right;points=[];portConstraint=eastwest;strokeColor=inherit;" vertex="1" parent="wYNosFjGGxAnOiMQhdah-4">
          <mxGeometry y="80" width="440" height="8" as="geometry" />
        </mxCell>
        <mxCell id="wYNosFjGGxAnOiMQhdah-7" value="+ next_row()&lt;br&gt;+ reset_row()&lt;br&gt;+&amp;nbsp;print_forecast(self, response_info, forecast_mode)&lt;br&gt;+&amp;nbsp;print_todays_forecast(self, response_info, forecast_mode)&lt;br&gt;- __add_hours_columns()&lt;br&gt;- __add_forecast_columns(elf, response_info, forecast_mode&lt;span style=&quot;background-color: initial;&quot;&gt;)&lt;/span&gt;" style="text;strokeColor=none;fillColor=none;align=left;verticalAlign=top;spacingLeft=4;spacingRight=4;overflow=hidden;rotatable=0;points=[[0,0.5],[1,0.5]];portConstraint=eastwest;whiteSpace=wrap;html=1;" vertex="1" parent="wYNosFjGGxAnOiMQhdah-4">
          <mxGeometry y="88" width="440" height="102" as="geometry" />
        </mxCell>
        <mxCell id="wYNosFjGGxAnOiMQhdah-8" value="RequestInfo" style="swimlane;fontStyle=1;align=center;verticalAlign=top;childLayout=stackLayout;horizontal=1;startSize=26;horizontalStack=0;resizeParent=1;resizeParentMax=0;resizeLast=0;collapsible=1;marginBottom=0;whiteSpace=wrap;html=1;" vertex="1" parent="WIyWlLk6GJQsqaUBKTNV-1">
          <mxGeometry x="40" y="480" width="540" height="230" as="geometry" />
        </mxCell>
        <mxCell id="wYNosFjGGxAnOiMQhdah-9" value="+ API_KEY : str&lt;br&gt;+ QUERY : str&lt;br&gt;+ FORECAST_SPAN : int&lt;br&gt;+ BASE_URL : str&lt;br&gt;+ CURL : str" style="text;strokeColor=none;fillColor=none;align=left;verticalAlign=top;spacingLeft=4;spacingRight=4;overflow=hidden;rotatable=0;points=[[0,0.5],[1,0.5]];portConstraint=eastwest;whiteSpace=wrap;html=1;" vertex="1" parent="wYNosFjGGxAnOiMQhdah-8">
          <mxGeometry y="26" width="540" height="84" as="geometry" />
        </mxCell>
        <mxCell id="wYNosFjGGxAnOiMQhdah-10" value="" style="line;strokeWidth=1;fillColor=none;align=left;verticalAlign=middle;spacingTop=-1;spacingLeft=3;spacingRight=3;rotatable=0;labelPosition=right;points=[];portConstraint=eastwest;strokeColor=inherit;" vertex="1" parent="wYNosFjGGxAnOiMQhdah-8">
          <mxGeometry y="110" width="540" height="8" as="geometry" />
        </mxCell>
        <mxCell id="wYNosFjGGxAnOiMQhdah-11" value="+ get_response(self, temperature_unit, forecast_mode, forecast_span) : ResponseInfo&lt;br&gt;- __extract_current_weather(self, json_obj, response, temperature_unit)&lt;br&gt;-&amp;nbsp;__extract_forecast(self, json_obj, response, forecast_mode, temperature_unit, forecast_span)&lt;br&gt;-&amp;nbsp;__extract_hourly_forecast(self, response, temperature_unit, day_index, day_info)&lt;br&gt;-&amp;nbsp;__extract_date(self, timestamp)&lt;br&gt;-&amp;nbsp;__get_name_of_weekday(self, date) : str&lt;br&gt;-&amp;nbsp;__get_name_of_month(self, month_as_int) : str" style="text;strokeColor=none;fillColor=none;align=left;verticalAlign=top;spacingLeft=4;spacingRight=4;overflow=hidden;rotatable=0;points=[[0,0.5],[1,0.5]];portConstraint=eastwest;whiteSpace=wrap;html=1;" vertex="1" parent="wYNosFjGGxAnOiMQhdah-8">
          <mxGeometry y="118" width="540" height="112" as="geometry" />
        </mxCell>
        <mxCell id="wYNosFjGGxAnOiMQhdah-16" value="ResponseInfo&lt;br&gt;" style="swimlane;fontStyle=1;align=center;verticalAlign=top;childLayout=stackLayout;horizontal=1;startSize=26;horizontalStack=0;resizeParent=1;resizeParentMax=0;resizeLast=0;collapsible=1;marginBottom=0;whiteSpace=wrap;html=1;" vertex="1" parent="WIyWlLk6GJQsqaUBKTNV-1">
          <mxGeometry x="310" y="380" width="210" height="86" as="geometry" />
        </mxCell>
        <mxCell id="wYNosFjGGxAnOiMQhdah-17" value="+ response_table : list" style="text;strokeColor=none;fillColor=none;align=left;verticalAlign=top;spacingLeft=4;spacingRight=4;overflow=hidden;rotatable=0;points=[[0,0.5],[1,0.5]];portConstraint=eastwest;whiteSpace=wrap;html=1;" vertex="1" parent="wYNosFjGGxAnOiMQhdah-16">
          <mxGeometry y="26" width="210" height="26" as="geometry" />
        </mxCell>
        <mxCell id="wYNosFjGGxAnOiMQhdah-18" value="" style="line;strokeWidth=1;fillColor=none;align=left;verticalAlign=middle;spacingTop=-1;spacingLeft=3;spacingRight=3;rotatable=0;labelPosition=right;points=[];portConstraint=eastwest;strokeColor=inherit;" vertex="1" parent="wYNosFjGGxAnOiMQhdah-16">
          <mxGeometry y="52" width="210" height="8" as="geometry" />
        </mxCell>
        <mxCell id="wYNosFjGGxAnOiMQhdah-19" value="+ next_day(self)" style="text;strokeColor=none;fillColor=none;align=left;verticalAlign=top;spacingLeft=4;spacingRight=4;overflow=hidden;rotatable=0;points=[[0,0.5],[1,0.5]];portConstraint=eastwest;whiteSpace=wrap;html=1;" vertex="1" parent="wYNosFjGGxAnOiMQhdah-16">
          <mxGeometry y="60" width="210" height="26" as="geometry" />
        </mxCell>
        <mxCell id="wYNosFjGGxAnOiMQhdah-28" value="RequestParameters" style="swimlane;fontStyle=0;childLayout=stackLayout;horizontal=1;startSize=26;fillColor=none;horizontalStack=0;resizeParent=1;resizeParentMax=0;resizeLast=0;collapsible=1;marginBottom=0;whiteSpace=wrap;html=1;" vertex="1" parent="WIyWlLk6GJQsqaUBKTNV-1">
          <mxGeometry x="40" y="380" width="140" height="78" as="geometry" />
        </mxCell>
        <mxCell id="wYNosFjGGxAnOiMQhdah-29" value="+ number_of_days: int" style="text;strokeColor=none;fillColor=none;align=left;verticalAlign=top;spacingLeft=4;spacingRight=4;overflow=hidden;rotatable=0;points=[[0,0.5],[1,0.5]];portConstraint=eastwest;whiteSpace=wrap;html=1;" vertex="1" parent="wYNosFjGGxAnOiMQhdah-28">
          <mxGeometry y="26" width="140" height="26" as="geometry" />
        </mxCell>
        <mxCell id="wYNosFjGGxAnOiMQhdah-30" value="+ city: str" style="text;strokeColor=none;fillColor=none;align=left;verticalAlign=top;spacingLeft=4;spacingRight=4;overflow=hidden;rotatable=0;points=[[0,0.5],[1,0.5]];portConstraint=eastwest;whiteSpace=wrap;html=1;" vertex="1" parent="wYNosFjGGxAnOiMQhdah-28">
          <mxGeometry y="52" width="140" height="26" as="geometry" />
        </mxCell>
        <mxCell id="wYNosFjGGxAnOiMQhdah-32" value="Configuration" style="swimlane;fontStyle=1;align=center;verticalAlign=top;childLayout=stackLayout;horizontal=1;startSize=26;horizontalStack=0;resizeParent=1;resizeParentMax=0;resizeLast=0;collapsible=1;marginBottom=0;whiteSpace=wrap;html=1;" vertex="1" parent="WIyWlLk6GJQsqaUBKTNV-1">
          <mxGeometry x="310" y="40" width="440" height="110" as="geometry" />
        </mxCell>
        <mxCell id="wYNosFjGGxAnOiMQhdah-33" value="+ field: type" style="text;strokeColor=none;fillColor=none;align=left;verticalAlign=top;spacingLeft=4;spacingRight=4;overflow=hidden;rotatable=0;points=[[0,0.5],[1,0.5]];portConstraint=eastwest;whiteSpace=wrap;html=1;" vertex="1" parent="wYNosFjGGxAnOiMQhdah-32">
          <mxGeometry y="26" width="440" height="26" as="geometry" />
        </mxCell>
        <mxCell id="wYNosFjGGxAnOiMQhdah-34" value="" style="line;strokeWidth=1;fillColor=none;align=left;verticalAlign=middle;spacingTop=-1;spacingLeft=3;spacingRight=3;rotatable=0;labelPosition=right;points=[];portConstraint=eastwest;strokeColor=inherit;" vertex="1" parent="wYNosFjGGxAnOiMQhdah-32">
          <mxGeometry y="52" width="440" height="8" as="geometry" />
        </mxCell>
        <mxCell id="wYNosFjGGxAnOiMQhdah-35" value="+&amp;nbsp;update_settings(self, temp_unit, forecast_span, name_of_city)&lt;br&gt;+ get_settings(self) : dictionary" style="text;strokeColor=none;fillColor=none;align=left;verticalAlign=top;spacingLeft=4;spacingRight=4;overflow=hidden;rotatable=0;points=[[0,0.5],[1,0.5]];portConstraint=eastwest;whiteSpace=wrap;html=1;" vertex="1" parent="wYNosFjGGxAnOiMQhdah-32">
          <mxGeometry y="60" width="440" height="50" as="geometry" />
        </mxCell>
        <mxCell id="wYNosFjGGxAnOiMQhdah-37" value="" style="endArrow=classic;html=1;rounded=0;entryX=0;entryY=0.5;entryDx=0;entryDy=0;exitX=1;exitY=0.345;exitDx=0;exitDy=0;exitPerimeter=0;" edge="1" parent="WIyWlLk6GJQsqaUBKTNV-1" source="wYNosFjGGxAnOiMQhdah-1" target="wYNosFjGGxAnOiMQhdah-32">
          <mxGeometry width="50" height="50" relative="1" as="geometry">
            <mxPoint x="240" y="130" as="sourcePoint" />
            <mxPoint x="290" y="80" as="targetPoint" />
          </mxGeometry>
        </mxCell>
        <mxCell id="wYNosFjGGxAnOiMQhdah-38" value="" style="endArrow=classic;html=1;rounded=0;exitX=1.013;exitY=0.195;exitDx=0;exitDy=0;exitPerimeter=0;entryX=-0.006;entryY=0.027;entryDx=0;entryDy=0;entryPerimeter=0;" edge="1" parent="WIyWlLk6GJQsqaUBKTNV-1" source="wYNosFjGGxAnOiMQhdah-3" target="wYNosFjGGxAnOiMQhdah-5">
          <mxGeometry width="50" height="50" relative="1" as="geometry">
            <mxPoint x="240" y="220" as="sourcePoint" />
            <mxPoint x="290" y="170" as="targetPoint" />
          </mxGeometry>
        </mxCell>
        <mxCell id="wYNosFjGGxAnOiMQhdah-39" value="" style="endArrow=classic;html=1;rounded=0;entryX=1;entryY=0.25;entryDx=0;entryDy=0;exitX=0.917;exitY=0.996;exitDx=0;exitDy=0;exitPerimeter=0;" edge="1" parent="WIyWlLk6GJQsqaUBKTNV-1" source="wYNosFjGGxAnOiMQhdah-3" target="wYNosFjGGxAnOiMQhdah-28">
          <mxGeometry width="50" height="50" relative="1" as="geometry">
            <mxPoint x="210" y="400" as="sourcePoint" />
            <mxPoint x="260" y="350" as="targetPoint" />
            <Array as="points">
              <mxPoint x="204" y="400" />
            </Array>
          </mxGeometry>
        </mxCell>
        <mxCell id="wYNosFjGGxAnOiMQhdah-40" value="" style="endArrow=classic;html=1;rounded=0;entryX=0.594;entryY=1.001;entryDx=0;entryDy=0;entryPerimeter=0;exitX=0.154;exitY=0;exitDx=0;exitDy=0;exitPerimeter=0;" edge="1" parent="WIyWlLk6GJQsqaUBKTNV-1" source="wYNosFjGGxAnOiMQhdah-8" target="wYNosFjGGxAnOiMQhdah-30">
          <mxGeometry width="50" height="50" relative="1" as="geometry">
            <mxPoint x="120" y="480" as="sourcePoint" />
            <mxPoint x="170" y="430" as="targetPoint" />
          </mxGeometry>
        </mxCell>
        <mxCell id="wYNosFjGGxAnOiMQhdah-41" value="" style="endArrow=classic;html=1;rounded=0;exitX=1.001;exitY=0.854;exitDx=0;exitDy=0;exitPerimeter=0;entryX=0.007;entryY=0.163;entryDx=0;entryDy=0;entryPerimeter=0;" edge="1" parent="WIyWlLk6GJQsqaUBKTNV-1" source="wYNosFjGGxAnOiMQhdah-3" target="wYNosFjGGxAnOiMQhdah-16">
          <mxGeometry width="50" height="50" relative="1" as="geometry">
            <mxPoint x="240" y="380" as="sourcePoint" />
            <mxPoint x="290" y="330" as="targetPoint" />
            <Array as="points">
              <mxPoint x="290" y="330" />
            </Array>
          </mxGeometry>
        </mxCell>
        <mxCell id="wYNosFjGGxAnOiMQhdah-43" value="" style="endArrow=classic;html=1;rounded=0;entryX=1;entryY=0.25;entryDx=0;entryDy=0;" edge="1" parent="WIyWlLk6GJQsqaUBKTNV-1" target="wYNosFjGGxAnOiMQhdah-16">
          <mxGeometry width="50" height="50" relative="1" as="geometry">
            <mxPoint x="540" y="480" as="sourcePoint" />
            <mxPoint x="630" y="394" as="targetPoint" />
            <Array as="points">
              <mxPoint x="540" y="400" />
            </Array>
          </mxGeometry>
        </mxCell>
        <mxCell id="wYNosFjGGxAnOiMQhdah-44" value="" style="endArrow=classic;html=1;rounded=0;entryX=0.336;entryY=-0.012;entryDx=0;entryDy=0;entryPerimeter=0;exitX=0.996;exitY=0.996;exitDx=0;exitDy=0;exitPerimeter=0;" edge="1" parent="WIyWlLk6GJQsqaUBKTNV-1" source="wYNosFjGGxAnOiMQhdah-3" target="wYNosFjGGxAnOiMQhdah-8">
          <mxGeometry width="50" height="50" relative="1" as="geometry">
            <mxPoint x="220" y="370" as="sourcePoint" />
            <mxPoint x="280" y="360" as="targetPoint" />
          </mxGeometry>
        </mxCell>
      </root>
    </mxGraphModel>
  </diagram>
</mxfile>
